{
    "accessors" : [
        {
            "bufferView" : 0, 
            "componentType" : 5123, 
            "count" : 1728, 
            "max" : [
                299
            ], 
            "min" : [
                0
            ], 
            "type" : "SCALAR"
        }, 
        {
            "bufferView" : 1, 
            "componentType" : 5126, 
            "count" : 300, 
            "max" : [
                1.0083163976669312, 
                0.005804236978292465, 
                0.3807372450828552
            ], 
            "min" : [
                -0.25291675329208374, 
                -1.430119276046753, 
                -0.12434618175029755
            ], 
            "type" : "VEC3"
        }, 
        {
            "bufferView" : 2, 
            "componentType" : 5126, 
            "count" : 300, 
            "max" : [
                0.8561967611312866, 
                0.999298095703125, 
                0.9998779296875
            ], 
            "min" : [
                -0.8560441732406616, 
                -0.999298095703125, 
                -0.9998779296875
            ], 
            "type" : "VEC3"
        }, 
        {
            "bufferView" : 3, 
            "componentType" : 5125, 
            "count" : 451509, 
            "max" : [
                451488
            ], 
            "min" : [
                0
            ], 
            "type" : "SCALAR"
        }, 
        {
            "bufferView" : 4, 
            "componentType" : 5126, 
            "count" : 451489, 
            "max" : [
                -4.428014755249023, 
                44.1544075012207, 
                23.72868537902832
            ], 
            "min" : [
                -106.00033569335938, 
                -47.601470947265625, 
                -69.48744201660156
            ], 
            "type" : "VEC3"
        }, 
        {
            "bufferView" : 5, 
            "componentType" : 5126, 
            "count" : 451489, 
            "max" : [
                0.9999879002571106, 
                1.0, 
                1.0
            ], 
            "min" : [
                -0.999963104724884, 
                -1.0, 
                -1.0
            ], 
            "type" : "VEC3"
        }, 
        {
            "bufferView" : 6, 
            "componentType" : 5126, 
            "count" : 451489, 
            "max" : [
                1.0, 
                0.9999998211860657, 
                1.0, 
                1.0
            ], 
            "min" : [
                -0.9997887015342712, 
                -0.9999918937683105, 
                -1.0, 
                -1.0
            ], 
            "type" : "VEC4"
        }, 
        {
            "bufferView" : 7, 
            "componentType" : 5126, 
            "count" : 451489, 
            "max" : [
                1.0, 
                1.0
            ], 
            "min" : [
                0.0, 
                0.0
            ], 
            "type" : "VEC2"
        }, 
        {
            "bufferView" : 8, 
            "componentType" : 5123, 
            "count" : 14874, 
            "max" : [
                7219
            ], 
            "min" : [
                0
            ], 
            "type" : "SCALAR"
        }, 
        {
            "bufferView" : 9, 
            "componentType" : 5126, 
            "count" : 7220, 
            "max" : [
                2.0400073528289795, 
                0.05000000074505806, 
                0.0590503066778183
            ], 
            "min" : [
                -0.010209038853645325, 
                -0.05000000074505806, 
                -0.7410309314727783
            ], 
            "type" : "VEC3"
        }, 
        {
            "bufferView" : 10, 
            "componentType" : 5126, 
            "count" : 7220, 
            "max" : [
                0.9899594187736511, 
                1.0, 
                0.9951170086860657
            ], 
            "min" : [
                -0.9928586483001709, 
                -1.0, 
                -0.9952086210250854
            ], 
            "type" : "VEC3"
        }, 
        {
            "bufferView" : 11, 
            "componentType" : 5126, 
            "count" : 7220, 
            "max" : [
                1.0, 
                0.9847068786621094, 
                0.9956318140029907, 
                1.0
            ], 
            "min" : [
                -1.0, 
                -0.976226270198822, 
                -0.9996176958084106, 
                1.0
            ], 
            "type" : "VEC4"
        }, 
        {
            "bufferView" : 12, 
            "componentType" : 5126, 
            "count" : 7220, 
            "max" : [
                1.0, 
                1.0
            ], 
            "min" : [
                0.0, 
                0.0
            ], 
            "type" : "VEC2"
        }
    ], 
    "asset" : {
        "generator" : "Khronos Blender glTF 2.0 exporter", 
        "version" : "2.0"
    }, 
    "bufferViews" : [
        {
            "buffer" : 0, 
            "byteLength" : 3456, 
            "byteOffset" : 0, 
            "target" : 34963
        }, 
        {
            "buffer" : 0, 
            "byteLength" : 3600, 
            "byteOffset" : 3456, 
            "target" : 34962
        }, 
        {
            "buffer" : 0, 
            "byteLength" : 3600, 
            "byteOffset" : 7056, 
            "target" : 34962
        }, 
        {
            "buffer" : 0, 
            "byteLength" : 1806036, 
            "byteOffset" : 10656, 
            "target" : 34963
        }, 
        {
            "buffer" : 0, 
            "byteLength" : 5417868, 
            "byteOffset" : 1816692, 
            "target" : 34962
        }, 
        {
            "buffer" : 0, 
            "byteLength" : 5417868, 
            "byteOffset" : 7234560, 
            "target" : 34962
        }, 
        {
            "buffer" : 0, 
            "byteLength" : 7223824, 
            "byteOffset" : 12652428, 
            "target" : 34962
        }, 
        {
            "buffer" : 0, 
            "byteLength" : 3611912, 
            "byteOffset" : 19876252, 
            "target" : 34962
        }, 
        {
            "buffer" : 0, 
            "byteLength" : 29748, 
            "byteOffset" : 23488164, 
            "target" : 34963
        }, 
        {
            "buffer" : 0, 
            "byteLength" : 86640, 
            "byteOffset" : 23517912, 
            "target" : 34962
        }, 
        {
            "buffer" : 0, 
            "byteLength" : 86640, 
            "byteOffset" : 23604552, 
            "target" : 34962
        }, 
        {
            "buffer" : 0, 
            "byteLength" : 115520, 
            "byteOffset" : 23691192, 
            "target" : 34962
        }, 
        {
            "buffer" : 0, 
            "byteLength" : 57760, 
            "byteOffset" : 23806712, 
            "target" : 34962
        }
    ], 
    "buffers" : [
        {
            "byteLength" : 23864472, 
            "uri" : "scale_controller.bin"
        }
    ], 
    "images" : [
        {
            "uri" : "right_controller.png"
        }, 
        {
            "uri" : "scale.png"
        }
    ], 
    "materials" : [
        {
            "name" : "Material", 
            "pbrMetallicRoughness" : {
                "baseColorFactor" : [
                    0.2023999721169467, 
                    0.2023999721169467, 
                    0.2023999721169467, 
                    1.0
                ], 
                "metallicFactor" : 0.0
            }
        }, 
        {
            "name" : "Material.002", 
            "pbrMetallicRoughness" : {
                "baseColorFactor" : [
                    0.0, 
                    0.0, 
                    0.0, 
                    1.0
                ], 
                "metallicFactor" : 0.0
            }
        }, 
        {
            "name" : "Material.008", 
            "pbrMetallicRoughness" : {
                "baseColorFactor" : [
                    0.6400000190734865, 
                    0.6400000190734865, 
                    0.6400000190734865, 
                    1.0
                ], 
                "baseColorTexture" : {
                    "index" : 0
                }, 
                "metallicFactor" : 0.0
            }
        }, 
        {
            "name" : "Material.011", 
            "pbrMetallicRoughness" : {
                "baseColorFactor" : [
                    0.800000011920929, 
                    0.09760000255107881, 
                    0.12719999741315835, 
                    1.0
                ], 
                "metallicFactor" : 0.0
            }
        }, 
        {
            "name" : "Material.012", 
            "pbrMetallicRoughness" : {
                "baseColorFactor" : [
                    0.6400000190734865, 
                    0.6400000190734865, 
                    0.6400000190734865, 
                    1.0
                ], 
                "baseColorTexture" : {
                    "index" : 1
                }, 
                "metallicFactor" : 0.0
            }
        }
    ], 
    "meshes" : [
        {
            "name" : "BezierCurve.000", 
            "primitives" : [
                {
                    "attributes" : {
                        "NORMAL" : 2, 
                        "POSITION" : 1
                    }, 
                    "indices" : 0, 
                    "material" : 1
                }
            ]
        }, 
        {
            "name" : "OculusTouch Right", 
            "primitives" : [
                {
                    "attributes" : {
                        "NORMAL" : 5, 
                        "POSITION" : 4, 
                        "TANGENT" : 6, 
                        "TEXCOORD_0" : 7
                    }, 
                    "indices" : 3, 
                    "material" : 2
                }
            ]
        }, 
        {
            "name" : "CUText.002", 
            "primitives" : [
                {
                    "attributes" : {
                        "NORMAL" : 10, 
                        "POSITION" : 9, 
                        "TANGENT" : 11, 
                        "TEXCOORD_0" : 12
                    }, 
                    "indices" : 8, 
                    "material" : 3
                }
            ]
        }
    ], 
    "nodes" : [
        {
            "mesh" : 0, 
            "name" : "BezierCurve.004", 
            "rotation" : [
                -0.26832661032676697, 
                0.6151130199432373, 
                0.7323426604270935, 
                0.11537358909845352
            ], 
            "scale" : [
                41.57351303100586, 
                41.57351303100586, 
                41.573516845703125
            ], 
            "translation" : [
                -1.0033493041992188, 
                8.994077682495117, 
                7.713359832763672
            ]
        }, 
        {
            "name" : "Camera", 
            "rotation" : [
                0.483536034822464, 
                0.33687159419059753, 
                -0.20870360732078552, 
                0.7804827094078064
            ], 
            "translation" : [
                7.481132507324219, 
                5.343666076660156, 
                6.507640838623047
            ]
        }, 
        {
            "name" : "Hemi", 
            "translation" : [
                -43.61906433105469, 
                107.30227661132812, 
                32.99959945678711
            ]
        }, 
        {
            "mesh" : 1, 
            "name" : "OculusTouch Right"
        }, 
        {
            "mesh" : 2, 
            "name" : "Text", 
            "rotation" : [
                -0.033804990351200104, 
                0.8815325498580933, 
                -0.470890074968338, 
                0.004492968786507845
            ], 
            "scale" : [
                17.047269821166992, 
                17.047269821166992, 
                17.047269821166992
            ], 
            "translation" : [
                46.393211364746094, 
                39.57366180419922, 
                -38.703426361083984
            ]
        }
    ], 
    "samplers" : [
        {}
    ], 
    "scene" : 0, 
    "scenes" : [
        {
            "name" : "Scene", 
            "nodes" : [
                4, 
                0, 
                3, 
                2, 
                1
            ]
        }
    ], 
    "textures" : [
        {
            "sampler" : 0, 
            "source" : 0
        }, 
        {
            "sampler" : 0, 
            "source" : 1
        }
    ]
}
