{
    "accessors" : [
        {
            "bufferView" : 0, 
            "componentType" : 5123, 
            "count" : 8550, 
            "max" : [
                2694
            ], 
            "min" : [
                0
            ], 
            "type" : "SCALAR"
        }, 
        {
            "bufferView" : 1, 
            "componentType" : 5126, 
            "count" : 2695, 
            "max" : [
                83.0, 
                1.0000001192092896, 
                1.1176471710205078
            ], 
            "min" : [
                -41.0, 
                -1.0000003576278687, 
                -5.88235330581665
            ], 
            "type" : "VEC3"
        }, 
        {
            "bufferView" : 2, 
            "componentType" : 5126, 
            "count" : 2695, 
            "max" : [
                1.0, 
                1.0, 
                1.0
            ], 
            "min" : [
                -1.0, 
                -1.0, 
                -1.0
            ], 
            "type" : "VEC3"
        }, 
        {
            "bufferView" : 3, 
            "componentType" : 5126, 
            "count" : 2695, 
            "max" : [
                1.5500000715255737, 
                1.5500000715255737
            ], 
            "min" : [
                -0.5500000715255737, 
                -0.5500000715255737
            ], 
            "type" : "VEC2"
        }, 
        {
            "bufferView" : 4, 
            "componentType" : 5121, 
            "count" : 18, 
            "max" : [
                7
            ], 
            "min" : [
                0
            ], 
            "type" : "SCALAR"
        }, 
        {
            "bufferView" : 5, 
            "componentType" : 5126, 
            "count" : 8, 
            "max" : [
                4.0, 
                0.0, 
                1.0
            ], 
            "min" : [
                -4.0, 
                0.0, 
                -5.571429252624512
            ], 
            "type" : "VEC3"
        }, 
        {
            "bufferView" : 6, 
            "componentType" : 5126, 
            "count" : 8, 
            "max" : [
                0.0, 
                1.0, 
                -0.0
            ], 
            "min" : [
                0.0, 
                1.0, 
                -0.0
            ], 
            "type" : "VEC3"
        }, 
        {
            "bufferView" : 7, 
            "componentType" : 5126, 
            "count" : 8, 
            "max" : [
                1.7997643947601318, 
                1.6569331884384155
            ], 
            "min" : [
                -0.7997643947601318, 
                -0.4783942699432373
            ], 
            "type" : "VEC2"
        }, 
        {
            "bufferView" : 8, 
            "componentType" : 5121, 
            "count" : 18, 
            "max" : [
                7
            ], 
            "min" : [
                0
            ], 
            "type" : "SCALAR"
        }, 
        {
            "bufferView" : 9, 
            "componentType" : 5126, 
            "count" : 8, 
            "max" : [
                4.0, 
                0.0, 
                1.0
            ], 
            "min" : [
                -4.0, 
                0.0, 
                -5.571429252624512
            ], 
            "type" : "VEC3"
        }, 
        {
            "bufferView" : 10, 
            "componentType" : 5126, 
            "count" : 8, 
            "max" : [
                0.0, 
                -1.0, 
                -0.0
            ], 
            "min" : [
                0.0, 
                -1.0, 
                -0.0
            ], 
            "type" : "VEC3"
        }, 
        {
            "bufferView" : 11, 
            "componentType" : 5126, 
            "count" : 8, 
            "max" : [
                0.9999093413352966, 
                0.9999093837250257
            ], 
            "min" : [
                9.061627497430891e-05, 
                0.17862963676452637
            ], 
            "type" : "VEC2"
        }
    ], 
    "asset" : {
        "generator" : "Khronos Blender glTF 2.0 exporter", 
        "version" : "2.0"
    }, 
    "bufferViews" : [
        {
            "buffer" : 0, 
            "byteLength" : 17100, 
            "byteOffset" : 0, 
            "target" : 34963
        }, 
        {
            "buffer" : 0, 
            "byteLength" : 32340, 
            "byteOffset" : 17100, 
            "target" : 34962
        }, 
        {
            "buffer" : 0, 
            "byteLength" : 32340, 
            "byteOffset" : 49440, 
            "target" : 34962
        }, 
        {
            "buffer" : 0, 
            "byteLength" : 21560, 
            "byteOffset" : 81780, 
            "target" : 34962
        }, 
        {
            "buffer" : 0, 
            "byteLength" : 18, 
            "byteOffset" : 103340, 
            "target" : 34963
        }, 
        {
            "buffer" : 0, 
            "byteLength" : 96, 
            "byteOffset" : 103360, 
            "target" : 34962
        }, 
        {
            "buffer" : 0, 
            "byteLength" : 96, 
            "byteOffset" : 103456, 
            "target" : 34962
        }, 
        {
            "buffer" : 0, 
            "byteLength" : 64, 
            "byteOffset" : 103552, 
            "target" : 34962
        }, 
        {
            "buffer" : 0, 
            "byteLength" : 18, 
            "byteOffset" : 103616, 
            "target" : 34963
        }, 
        {
            "buffer" : 0, 
            "byteLength" : 96, 
            "byteOffset" : 103636, 
            "target" : 34962
        }, 
        {
            "buffer" : 0, 
            "byteLength" : 96, 
            "byteOffset" : 103732, 
            "target" : 34962
        }, 
        {
            "buffer" : 0, 
            "byteLength" : 64, 
            "byteOffset" : 103828, 
            "target" : 34962
        }
    ], 
    "buffers" : [
        {
            "byteLength" : 103892, 
            "uri" : "finalmuseum.bin"
        }
    ], 
    "images" : [
        {
            "uri" : "green-marble-floor.png"
        }, 
        {
            "uri" : "wall_texture.png"
        }
    ], 
    "materials" : [
        {
            "name" : "Material", 
            "pbrMetallicRoughness" : {
                "baseColorFactor" : [
                    0.6400000190734865, 
                    0.6400000190734865, 
                    0.6400000190734865, 
                    1.0
                ], 
                "baseColorTexture" : {
                    "index" : 0
                }, 
                "metallicFactor" : 0.0
            }
        }, 
        {
            "name" : "roof", 
            "pbrMetallicRoughness" : {
                "baseColorFactor" : [
                    0.800000011920929, 
                    0.800000011920929, 
                    0.800000011920929, 
                    1.0
                ], 
                "baseColorTexture" : {
                    "index" : 1
                }, 
                "metallicFactor" : 0.0
            }
        }, 
        {
            "name" : "wall_material", 
            "normalTexture" : {
                "index" : 1
            }, 
            "pbrMetallicRoughness" : {
                "baseColorFactor" : [
                    0.6400000190734865, 
                    0.6400000190734865, 
                    0.6400000190734865, 
                    1.0
                ], 
                "baseColorTexture" : {
                    "index" : 1
                }, 
                "metallicFactor" : 0.0
            }
        }
    ], 
    "meshes" : [
        {
            "name" : "Cube.005", 
            "primitives" : [
                {
                    "attributes" : {
                        "NORMAL" : 2, 
                        "POSITION" : 1, 
                        "TEXCOORD_0" : 3
                    }, 
                    "indices" : 0, 
                    "material" : 2
                }
            ]
        }, 
        {
            "name" : "Plane.001", 
            "primitives" : [
                {
                    "attributes" : {
                        "NORMAL" : 6, 
                        "POSITION" : 5, 
                        "TEXCOORD_0" : 7
                    }, 
                    "indices" : 4, 
                    "material" : 0
                }
            ]
        }, 
        {
            "name" : "Plane.000", 
            "primitives" : [
                {
                    "attributes" : {
                        "NORMAL" : 10, 
                        "POSITION" : 9, 
                        "TEXCOORD_0" : 11
                    }, 
                    "indices" : 8, 
                    "material" : 1
                }
            ]
        }
    ], 
    "nodes" : [
        {
            "name" : "Camera", 
            "rotation" : [
                0.483536034822464, 
                0.33687159419059753, 
                -0.20870360732078552, 
                0.7804827094078064
            ], 
            "translation" : [
                7.481131553649902, 
                5.34366512298584, 
                6.5076398849487305
            ]
        }, 
        {
            "mesh" : 0, 
            "name" : "Cube.005", 
            "scale" : [
                0.10000000149011612, 
                1.25, 
                1.7000000476837158
            ], 
            "translation" : [
                -2.0999999046325684, 
                1.25, 
                2.799999952316284
            ]
        }, 
        {
            "name" : "Lamp", 
            "rotation" : [
                0.16907575726509094, 
                0.7558802962303162, 
                -0.27217137813568115, 
                0.570947527885437
            ], 
            "scale" : [
                1.0, 
                1.0, 
                0.9999999403953552
            ], 
            "translation" : [
                0.07624530792236328, 
                0.9038619995117188, 
                0.9945460557937622
            ]
        }, 
        {
            "mesh" : 2, 
            "name" : "Plane.000", 
            "scale" : [
                1.5, 
                1.0, 
                1.75
            ], 
            "translation" : [
                0.0, 
                2.5, 
                2.75
            ]
        }, 
        {
            "mesh" : 1, 
            "name" : "Plane.001", 
            "scale" : [
                1.5, 
                1.0, 
                1.75
            ], 
            "translation" : [
                0.0, 
                0.0, 
                2.75
            ]
        }
    ], 
    "samplers" : [
        {}
    ], 
    "scene" : 0, 
    "scenes" : [
        {
            "name" : "Scene", 
            "nodes" : [
                3, 
                1, 
                4, 
                2, 
                0
            ]
        }
    ], 
    "textures" : [
        {
            "sampler" : 0, 
            "source" : 0
        }, 
        {
            "sampler" : 0, 
            "source" : 1
        }, 
        {
            "sampler" : 0, 
            "source" : 1
        }
    ]
}
