{
    "accessors" : [
        {
            "bufferView" : 0, 
            "componentType" : 5121, 
            "count" : 24, 
            "max" : [
                9
            ], 
            "min" : [
                0
            ], 
            "type" : "SCALAR"
        }, 
        {
            "bufferView" : 1, 
            "componentType" : 5126, 
            "count" : 10, 
            "max" : [
                1.0, 
                0.0, 
                1.537857174873352
            ], 
            "min" : [
                -1.0, 
                0.0, 
                -1.0
            ], 
            "type" : "VEC3"
        }, 
        {
            "bufferView" : 2, 
            "componentType" : 5126, 
            "count" : 10, 
            "max" : [
                -0.0, 
                -1.0, 
                -0.0
            ], 
            "min" : [
                -0.0, 
                -1.0, 
                -0.0
            ], 
            "type" : "VEC3"
        }, 
        {
            "bufferView" : 3, 
            "componentType" : 5121, 
            "count" : 132, 
            "max" : [
                87
            ], 
            "min" : [
                0
            ], 
            "type" : "SCALAR"
        }, 
        {
            "bufferView" : 4, 
            "componentType" : 5126, 
            "count" : 88, 
            "max" : [
                0.9375, 
                1.9034802913665771, 
                -0.9375
            ], 
            "min" : [
                -0.875, 
                1.1866652965545654, 
                -1.0
            ], 
            "type" : "VEC3"
        }, 
        {
            "bufferView" : 5, 
            "componentType" : 5126, 
            "count" : 88, 
            "max" : [
                0.0, 
                1.0, 
                -0.0
            ], 
            "min" : [
                0.0, 
                1.0, 
                -0.0
            ], 
            "type" : "VEC3"
        }, 
        {
            "bufferView" : 6, 
            "componentType" : 5126, 
            "count" : 88, 
            "max" : [
                0.4110908508300781, 
                1.0
            ], 
            "min" : [
                0.0, 
                0.8055733293294907
            ], 
            "type" : "VEC2"
        }, 
        {
            "bufferView" : 7, 
            "componentType" : 5123, 
            "count" : 1578, 
            "max" : [
                769
            ], 
            "min" : [
                0
            ], 
            "type" : "SCALAR"
        }, 
        {
            "bufferView" : 8, 
            "componentType" : 5126, 
            "count" : 770, 
            "max" : [
                1.0, 
                4.253880977630615, 
                1.563018560409546
            ], 
            "min" : [
                -1.0, 
                1.1866652965545654, 
                -1.0
            ], 
            "type" : "VEC3"
        }, 
        {
            "bufferView" : 9, 
            "componentType" : 5126, 
            "count" : 770, 
            "max" : [
                1.0, 
                1.0, 
                1.0
            ], 
            "min" : [
                -1.0, 
                -1.0, 
                -1.0
            ], 
            "type" : "VEC3"
        }, 
        {
            "bufferView" : 10, 
            "componentType" : 5126, 
            "count" : 770, 
            "max" : [
                1.0, 
                1.0
            ], 
            "min" : [
                0.0, 
                0.9853075379505754
            ], 
            "type" : "VEC2"
        }, 
        {
            "bufferView" : 11, 
            "componentType" : 5123, 
            "count" : 5568, 
            "max" : [
                1011
            ], 
            "min" : [
                0
            ], 
            "type" : "SCALAR"
        }, 
        {
            "bufferView" : 12, 
            "componentType" : 5126, 
            "count" : 1012, 
            "max" : [
                0.9375, 
                0.0, 
                1.563018560409546
            ], 
            "min" : [
                -0.9375, 
                0.0, 
                -0.9375
            ], 
            "type" : "VEC3"
        }, 
        {
            "bufferView" : 13, 
            "componentType" : 5126, 
            "count" : 1012, 
            "max" : [
                0.0, 
                1.0, 
                -0.0
            ], 
            "min" : [
                0.0, 
                0.9999999403953552, 
                -0.0
            ], 
            "type" : "VEC3"
        }, 
        {
            "bufferView" : 14, 
            "componentType" : 5126, 
            "count" : 1012, 
            "max" : [
                1.0, 
                1.0
            ], 
            "min" : [
                0.0, 
                0.0
            ], 
            "type" : "VEC2"
        }, 
        {
            "bufferView" : 15, 
            "componentType" : 5121, 
            "count" : 48, 
            "max" : [
                27
            ], 
            "min" : [
                0
            ], 
            "type" : "SCALAR"
        }, 
        {
            "bufferView" : 16, 
            "componentType" : 5126, 
            "count" : 28, 
            "max" : [
                1.0, 
                4.253880977630615, 
                1.563018560409546
            ], 
            "min" : [
                -1.0, 
                1.54891037940979, 
                -0.9375
            ], 
            "type" : "VEC3"
        }, 
        {
            "bufferView" : 17, 
            "componentType" : 5126, 
            "count" : 28, 
            "max" : [
                1.0, 
                1.0, 
                1.0
            ], 
            "min" : [
                0.0, 
                -1.0, 
                0.0
            ], 
            "type" : "VEC3"
        }, 
        {
            "bufferView" : 18, 
            "componentType" : 5126, 
            "count" : 28, 
            "max" : [
                0.945023238658905, 
                1.0
            ], 
            "min" : [
                0.0, 
                0.023325741291046143
            ], 
            "type" : "VEC2"
        }, 
        {
            "bufferView" : 19, 
            "componentType" : 5123, 
            "count" : 11040, 
            "max" : [
                3137
            ], 
            "min" : [
                0
            ], 
            "type" : "SCALAR"
        }, 
        {
            "bufferView" : 20, 
            "componentType" : 5126, 
            "count" : 3138, 
            "max" : [
                1.0, 
                4.253880977630615, 
                1.563018560409546
            ], 
            "min" : [
                -1.0, 
                0.0, 
                -1.0
            ], 
            "type" : "VEC3"
        }, 
        {
            "bufferView" : 21, 
            "componentType" : 5126, 
            "count" : 3138, 
            "max" : [
                1.0, 
                -0.0, 
                1.0
            ], 
            "min" : [
                -1.0, 
                -1.0, 
                -1.0
            ], 
            "type" : "VEC3"
        }, 
        {
            "bufferView" : 22, 
            "componentType" : 5126, 
            "count" : 3138, 
            "max" : [
                0.9951590895652771, 
                0.9996958427655045
            ], 
            "min" : [
                0.0003041572344955057, 
                0.00030416250228881836
            ], 
            "type" : "VEC2"
        }
    ], 
    "asset" : {
        "generator" : "Khronos Blender glTF 2.0 exporter", 
        "version" : "2.0"
    }, 
    "bufferViews" : [
        {
            "buffer" : 0, 
            "byteLength" : 24, 
            "byteOffset" : 0, 
            "target" : 34963
        }, 
        {
            "buffer" : 0, 
            "byteLength" : 120, 
            "byteOffset" : 24, 
            "target" : 34962
        }, 
        {
            "buffer" : 0, 
            "byteLength" : 120, 
            "byteOffset" : 144, 
            "target" : 34962
        }, 
        {
            "buffer" : 0, 
            "byteLength" : 132, 
            "byteOffset" : 264, 
            "target" : 34963
        }, 
        {
            "buffer" : 0, 
            "byteLength" : 1056, 
            "byteOffset" : 396, 
            "target" : 34962
        }, 
        {
            "buffer" : 0, 
            "byteLength" : 1056, 
            "byteOffset" : 1452, 
            "target" : 34962
        }, 
        {
            "buffer" : 0, 
            "byteLength" : 704, 
            "byteOffset" : 2508, 
            "target" : 34962
        }, 
        {
            "buffer" : 0, 
            "byteLength" : 3156, 
            "byteOffset" : 3212, 
            "target" : 34963
        }, 
        {
            "buffer" : 0, 
            "byteLength" : 9240, 
            "byteOffset" : 6368, 
            "target" : 34962
        }, 
        {
            "buffer" : 0, 
            "byteLength" : 9240, 
            "byteOffset" : 15608, 
            "target" : 34962
        }, 
        {
            "buffer" : 0, 
            "byteLength" : 6160, 
            "byteOffset" : 24848, 
            "target" : 34962
        }, 
        {
            "buffer" : 0, 
            "byteLength" : 11136, 
            "byteOffset" : 31008, 
            "target" : 34963
        }, 
        {
            "buffer" : 0, 
            "byteLength" : 12144, 
            "byteOffset" : 42144, 
            "target" : 34962
        }, 
        {
            "buffer" : 0, 
            "byteLength" : 12144, 
            "byteOffset" : 54288, 
            "target" : 34962
        }, 
        {
            "buffer" : 0, 
            "byteLength" : 8096, 
            "byteOffset" : 66432, 
            "target" : 34962
        }, 
        {
            "buffer" : 0, 
            "byteLength" : 48, 
            "byteOffset" : 74528, 
            "target" : 34963
        }, 
        {
            "buffer" : 0, 
            "byteLength" : 336, 
            "byteOffset" : 74576, 
            "target" : 34962
        }, 
        {
            "buffer" : 0, 
            "byteLength" : 336, 
            "byteOffset" : 74912, 
            "target" : 34962
        }, 
        {
            "buffer" : 0, 
            "byteLength" : 224, 
            "byteOffset" : 75248, 
            "target" : 34962
        }, 
        {
            "buffer" : 0, 
            "byteLength" : 22080, 
            "byteOffset" : 75472, 
            "target" : 34963
        }, 
        {
            "buffer" : 0, 
            "byteLength" : 37656, 
            "byteOffset" : 97552, 
            "target" : 34962
        }, 
        {
            "buffer" : 0, 
            "byteLength" : 37656, 
            "byteOffset" : 135208, 
            "target" : 34962
        }, 
        {
            "buffer" : 0, 
            "byteLength" : 25104, 
            "byteOffset" : 172864, 
            "target" : 34962
        }
    ], 
    "buffers" : [
        {
            "byteLength" : 197968, 
            "uri" : "museum.bin"
        }
    ], 
    "images" : [
        {
            "uri" : "wall-texture.png"
        }, 
        {
            "uri" : "glTF_Generated_ceilinnng.png"
        }, 
        {
            "uri" : "bakedfloor.png"
        }, 
        {
            "uri" : "floor_texture.png"
        }, 
        {
            "uri" : "wallbake.png"
        }
    ], 
    "materials" : [
        {
            "name" : "ceiling", 
            "normalTexture" : {
                "index" : 0
            }, 
            "pbrMetallicRoughness" : {
                "baseColorFactor" : [
                    0.800000011920929, 
                    0.800000011920929, 
                    0.800000011920929, 
                    1.0
                ], 
                "baseColorTexture" : {
                    "index" : 0
                }, 
                "metallicFactor" : 0.0
            }
        }, 
        {
            "name" : "ceiling_bake", 
            "pbrMetallicRoughness" : {
                "baseColorFactor" : [
                    0.800000011920929, 
                    0.800000011920929, 
                    0.800000011920929, 
                    1.0
                ], 
                "baseColorTexture" : {
                    "index" : 1
                }, 
                "metallicFactor" : 0.0
            }
        }, 
        {
            "name" : "floor_bake.001", 
            "pbrMetallicRoughness" : {
                "baseColorFactor" : [
                    0.800000011920929, 
                    0.800000011920929, 
                    0.800000011920929, 
                    1.0
                ], 
                "baseColorTexture" : {
                    "index" : 2
                }, 
                "metallicFactor" : 0.0
            }
        }, 
        {
            "name" : "floor_texture", 
            "normalTexture" : {
                "index" : 3
            }, 
            "pbrMetallicRoughness" : {
                "baseColorFactor" : [
                    0.800000011920929, 
                    0.800000011920929, 
                    0.800000011920929, 
                    1.0
                ], 
                "baseColorTexture" : {
                    "index" : 3
                }, 
                "metallicFactor" : 0.0
            }
        }, 
        {
            "name" : "floor_bake", 
            "pbrMetallicRoughness" : {
                "baseColorFactor" : [
                    0.800000011920929, 
                    0.800000011920929, 
                    0.800000011920929, 
                    1.0
                ], 
                "baseColorTexture" : {
                    "index" : 2
                }, 
                "metallicFactor" : 0.0
            }
        }, 
        {
            "name" : "Material.001", 
            "pbrMetallicRoughness" : {
                "baseColorFactor" : [
                    0.800000011920929, 
                    0.800000011920929, 
                    0.800000011920929, 
                    1.0
                ], 
                "baseColorTexture" : {
                    "index" : 2
                }, 
                "metallicFactor" : 0.0
            }
        }, 
        {
            "name" : "Material.002", 
            "pbrMetallicRoughness" : {
                "baseColorFactor" : [
                    0.6400000190734865, 
                    0.6400000190734865, 
                    0.6400000190734865, 
                    1.0
                ], 
                "baseColorTexture" : {
                    "index" : 6
                }, 
                "metallicFactor" : 0.0
            }
        }, 
        {
            "name" : "Material.003", 
            "pbrMetallicRoughness" : {
                "baseColorFactor" : [
                    0.46517062880353066, 
                    0.46517062880353066, 
                    0.46517062880353066, 
                    1.0
                ], 
                "metallicFactor" : 0.0
            }
        }, 
        {
            "name" : "roof", 
            "pbrMetallicRoughness" : {
                "baseColorFactor" : [
                    0.800000011920929, 
                    0.800000011920929, 
                    0.800000011920929, 
                    1.0
                ], 
                "metallicFactor" : 0.0
            }
        }, 
        {
            "name" : "walls", 
            "normalTexture" : {
                "index" : 0
            }, 
            "pbrMetallicRoughness" : {
                "baseColorFactor" : [
                    0.800000011920929, 
                    0.800000011920929, 
                    0.800000011920929, 
                    1.0
                ], 
                "baseColorTexture" : {
                    "index" : 0
                }, 
                "metallicFactor" : 0.0
            }
        }, 
        {
            "name" : "windows", 
            "pbrMetallicRoughness" : {
                "baseColorFactor" : [
                    0.6400000190734865, 
                    0.6400000190734865, 
                    0.6400000190734865, 
                    1.0
                ], 
                "metallicFactor" : 0.0
            }
        }
    ], 
    "meshes" : [
        {
            "name" : "Plane.001", 
            "primitives" : [
                {
                    "attributes" : {
                        "NORMAL" : 2, 
                        "POSITION" : 1
                    }, 
                    "indices" : 0, 
                    "material" : 7
                }
            ]
        }, 
        {
            "name" : "Plane", 
            "primitives" : [
                {
                    "attributes" : {
                        "NORMAL" : 5, 
                        "POSITION" : 4, 
                        "TEXCOORD_0" : 6
                    }, 
                    "indices" : 3, 
                    "material" : 10
                }, 
                {
                    "attributes" : {
                        "NORMAL" : 9, 
                        "POSITION" : 8, 
                        "TEXCOORD_0" : 10
                    }, 
                    "indices" : 7, 
                    "material" : 3
                }, 
                {
                    "attributes" : {
                        "NORMAL" : 13, 
                        "POSITION" : 12, 
                        "TEXCOORD_0" : 14
                    }, 
                    "indices" : 11, 
                    "material" : 5
                }, 
                {
                    "attributes" : {
                        "NORMAL" : 17, 
                        "POSITION" : 16, 
                        "TEXCOORD_0" : 18
                    }, 
                    "indices" : 15, 
                    "material" : 9
                }, 
                {
                    "attributes" : {
                        "NORMAL" : 21, 
                        "POSITION" : 20, 
                        "TEXCOORD_0" : 22
                    }, 
                    "indices" : 19, 
                    "material" : 6
                }
            ]
        }
    ], 
    "nodes" : [
        {
            "name" : "Area", 
            "translation" : [
                -3.570523977279663, 
                3.7816176414489746, 
                -1.8521406650543213
            ]
        }, 
        {
            "name" : "Area.001", 
            "translation" : [
                4.145317077636719, 
                3.7710118293762207, 
                -1.9890257120132446
            ]
        }, 
        {
            "name" : "Area.002", 
            "translation" : [
                0.10314643383026123, 
                3.272822380065918, 
                4.358158111572266
            ]
        }, 
        {
            "name" : "Camera", 
            "rotation" : [
                0.483536034822464, 
                0.33687159419059753, 
                -0.20870360732078552, 
                0.7804827094078064
            ], 
            "translation" : [
                7.481131553649902, 
                5.34366512298584, 
                6.5076398849487305
            ]
        }, 
        {
            "mesh" : 1, 
            "name" : "Plane", 
            "scale" : [
                7.754916191101074, 
                1.0, 
                5.81428861618042
            ], 
            "translation" : [
                0.0, 
                0.0, 
                -1.6910570859909058
            ]
        }, 
        {
            "mesh" : 0, 
            "name" : "Plane.001", 
            "scale" : [
                7.882056713104248, 
                4.831174850463867, 
                5.902157306671143
            ], 
            "translation" : [
                0.0831848680973053, 
                4.263322353363037, 
                -1.6887980699539185
            ]
        }
    ], 
    "samplers" : [
        {}
    ], 
    "scene" : 0, 
    "scenes" : [
        {
            "name" : "Scene", 
            "nodes" : [
                5, 
                2, 
                1, 
                0, 
                4, 
                3
            ]
        }
    ], 
    "textures" : [
        {
            "sampler" : 0, 
            "source" : 0
        }, 
        {
            "sampler" : 0, 
            "source" : 1
        }, 
        {
            "sampler" : 0, 
            "source" : 2
        }, 
        {
            "sampler" : 0, 
            "source" : 3
        }, 
        {
            "sampler" : 0, 
            "source" : 2
        }, 
        {
            "sampler" : 0, 
            "source" : 2
        }, 
        {
            "sampler" : 0, 
            "source" : 4
        }, 
        {
            "sampler" : 0, 
            "source" : 0
        }
    ]
}
