{
    "accessors" : [
        {
            "bufferView" : 0, 
            "componentType" : 5123, 
            "count" : 21918, 
            "max" : [
                10758
            ], 
            "min" : [
                0
            ], 
            "type" : "SCALAR"
        }, 
        {
            "bufferView" : 1, 
            "componentType" : 5126, 
            "count" : 10759, 
            "max" : [
                4.288086414337158, 
                0.05000000074505806, 
                0.06507378816604614
            ], 
            "min" : [
                -0.00010580942034721375, 
                -0.05000000074505806, 
                -0.7410221695899963
            ], 
            "type" : "VEC3"
        }, 
        {
            "bufferView" : 2, 
            "componentType" : 5126, 
            "count" : 10759, 
            "max" : [
                0.9899289011955261, 
                1.0, 
                0.9951170086860657
            ], 
            "min" : [
                -0.9931027889251709, 
                -1.0, 
                -0.9952086210250854
            ], 
            "type" : "VEC3"
        }, 
        {
            "bufferView" : 3, 
            "componentType" : 5126, 
            "count" : 10759, 
            "max" : [
                1.0, 
                0.9999762773513794, 
                1.0, 
                1.0
            ], 
            "min" : [
                -1.0, 
                -0.9940723776817322, 
                -0.9998611807823181, 
                1.0
            ], 
            "type" : "VEC4"
        }, 
        {
            "bufferView" : 4, 
            "componentType" : 5126, 
            "count" : 10759, 
            "max" : [
                1.0, 
                1.0
            ], 
            "min" : [
                0.0, 
                0.0
            ], 
            "type" : "VEC2"
        }, 
        {
            "bufferView" : 5, 
            "componentType" : 5125, 
            "count" : 451509, 
            "max" : [
                451488
            ], 
            "min" : [
                0
            ], 
            "type" : "SCALAR"
        }, 
        {
            "bufferView" : 6, 
            "componentType" : 5126, 
            "count" : 451489, 
            "max" : [
                -4.428014755249023, 
                44.1544075012207, 
                23.72868537902832
            ], 
            "min" : [
                -106.00033569335938, 
                -47.601470947265625, 
                -69.48744201660156
            ], 
            "type" : "VEC3"
        }, 
        {
            "bufferView" : 7, 
            "componentType" : 5126, 
            "count" : 451489, 
            "max" : [
                0.9999879002571106, 
                1.0, 
                1.0
            ], 
            "min" : [
                -0.999963104724884, 
                -1.0, 
                -1.0
            ], 
            "type" : "VEC3"
        }, 
        {
            "bufferView" : 8, 
            "componentType" : 5126, 
            "count" : 451489, 
            "max" : [
                1.0, 
                0.9999998211860657, 
                1.0, 
                1.0
            ], 
            "min" : [
                -0.9997887015342712, 
                -0.9999918937683105, 
                -1.0, 
                -1.0
            ], 
            "type" : "VEC4"
        }, 
        {
            "bufferView" : 9, 
            "componentType" : 5126, 
            "count" : 451489, 
            "max" : [
                1.0, 
                1.0
            ], 
            "min" : [
                0.0, 
                0.0
            ], 
            "type" : "VEC2"
        }, 
        {
            "bufferView" : 10, 
            "componentType" : 5123, 
            "count" : 1728, 
            "max" : [
                299
            ], 
            "min" : [
                0
            ], 
            "type" : "SCALAR"
        }, 
        {
            "bufferView" : 11, 
            "componentType" : 5126, 
            "count" : 300, 
            "max" : [
                1.009030818939209, 
                0.008624806068837643, 
                0.4803644120693207
            ], 
            "min" : [
                -0.3941526710987091, 
                -1.0798192024230957, 
                -0.006231843028217554
            ], 
            "type" : "VEC3"
        }, 
        {
            "bufferView" : 12, 
            "componentType" : 5126, 
            "count" : 300, 
            "max" : [
                0.9198583960533142, 
                0.9182409048080444, 
                0.9987182021141052
            ], 
            "min" : [
                -0.9181188344955444, 
                -0.9188817739486694, 
                -0.9988402724266052
            ], 
            "type" : "VEC3"
        }
    ], 
    "asset" : {
        "generator" : "Khronos Blender glTF 2.0 exporter", 
        "version" : "2.0"
    }, 
    "bufferViews" : [
        {
            "buffer" : 0, 
            "byteLength" : 43836, 
            "byteOffset" : 0, 
            "target" : 34963
        }, 
        {
            "buffer" : 0, 
            "byteLength" : 129108, 
            "byteOffset" : 43836, 
            "target" : 34962
        }, 
        {
            "buffer" : 0, 
            "byteLength" : 129108, 
            "byteOffset" : 172944, 
            "target" : 34962
        }, 
        {
            "buffer" : 0, 
            "byteLength" : 172144, 
            "byteOffset" : 302052, 
            "target" : 34962
        }, 
        {
            "buffer" : 0, 
            "byteLength" : 86072, 
            "byteOffset" : 474196, 
            "target" : 34962
        }, 
        {
            "buffer" : 0, 
            "byteLength" : 1806036, 
            "byteOffset" : 560268, 
            "target" : 34963
        }, 
        {
            "buffer" : 0, 
            "byteLength" : 5417868, 
            "byteOffset" : 2366304, 
            "target" : 34962
        }, 
        {
            "buffer" : 0, 
            "byteLength" : 5417868, 
            "byteOffset" : 7784172, 
            "target" : 34962
        }, 
        {
            "buffer" : 0, 
            "byteLength" : 7223824, 
            "byteOffset" : 13202040, 
            "target" : 34962
        }, 
        {
            "buffer" : 0, 
            "byteLength" : 3611912, 
            "byteOffset" : 20425864, 
            "target" : 34962
        }, 
        {
            "buffer" : 0, 
            "byteLength" : 3456, 
            "byteOffset" : 24037776, 
            "target" : 34963
        }, 
        {
            "buffer" : 0, 
            "byteLength" : 3600, 
            "byteOffset" : 24041232, 
            "target" : 34962
        }, 
        {
            "buffer" : 0, 
            "byteLength" : 3600, 
            "byteOffset" : 24044832, 
            "target" : 34962
        }
    ], 
    "buffers" : [
        {
            "byteLength" : 24048432, 
            "uri" : "hover_controller.bin"
        }
    ], 
    "images" : [
        {
            "uri" : "right_controller.png"
        }, 
        {
            "uri" : "hover.png"
        }
    ], 
    "materials" : [
        {
            "name" : "Material", 
            "pbrMetallicRoughness" : {
                "baseColorFactor" : [
                    0.2023999721169467, 
                    0.2023999721169467, 
                    0.2023999721169467, 
                    1.0
                ], 
                "metallicFactor" : 0.0
            }
        }, 
        {
            "name" : "Material.002", 
            "pbrMetallicRoughness" : {
                "baseColorFactor" : [
                    0.0, 
                    0.0, 
                    0.0, 
                    1.0
                ], 
                "metallicFactor" : 0.0
            }
        }, 
        {
            "name" : "Material.008", 
            "pbrMetallicRoughness" : {
                "baseColorFactor" : [
                    0.6400000190734865, 
                    0.6400000190734865, 
                    0.6400000190734865, 
                    1.0
                ], 
                "baseColorTexture" : {
                    "index" : 0
                }, 
                "metallicFactor" : 0.0
            }
        }, 
        {
            "name" : "Material.014", 
            "pbrMetallicRoughness" : {
                "baseColorFactor" : [
                    0.800000011920929, 
                    0.09759987738132292, 
                    0.12720067690611891, 
                    1.0
                ], 
                "metallicFactor" : 0.0
            }
        }, 
        {
            "name" : "Material.015", 
            "pbrMetallicRoughness" : {
                "baseColorFactor" : [
                    0.6400000190734865, 
                    0.6400000190734865, 
                    0.6400000190734865, 
                    1.0
                ], 
                "baseColorTexture" : {
                    "index" : 1
                }, 
                "metallicFactor" : 0.0
            }
        }
    ], 
    "meshes" : [
        {
            "name" : "CUText.004", 
            "primitives" : [
                {
                    "attributes" : {
                        "NORMAL" : 2, 
                        "POSITION" : 1, 
                        "TANGENT" : 3, 
                        "TEXCOORD_0" : 4
                    }, 
                    "indices" : 0, 
                    "material" : 4
                }
            ]
        }, 
        {
            "name" : "OculusTouch Right", 
            "primitives" : [
                {
                    "attributes" : {
                        "NORMAL" : 7, 
                        "POSITION" : 6, 
                        "TANGENT" : 8, 
                        "TEXCOORD_0" : 9
                    }, 
                    "indices" : 5, 
                    "material" : 2
                }
            ]
        }, 
        {
            "name" : "BezierCurve.000", 
            "primitives" : [
                {
                    "attributes" : {
                        "NORMAL" : 12, 
                        "POSITION" : 11
                    }, 
                    "indices" : 10, 
                    "material" : 1
                }
            ]
        }
    ], 
    "nodes" : [
        {
            "mesh" : 2, 
            "name" : "BezierCurve.004", 
            "rotation" : [
                -0.26832661032676697, 
                0.6151130199432373, 
                0.7323426604270935, 
                0.11537358909845352
            ], 
            "scale" : [
                41.57351303100586, 
                41.57351303100586, 
                41.573516845703125
            ], 
            "translation" : [
                2.9067153930664062, 
                39.01762771606445, 
                14.494522094726562
            ]
        }, 
        {
            "name" : "Camera", 
            "rotation" : [
                0.483536034822464, 
                0.33687159419059753, 
                -0.20870360732078552, 
                0.7804827094078064
            ], 
            "translation" : [
                7.481132507324219, 
                5.343666076660156, 
                6.507640838623047
            ]
        }, 
        {
            "name" : "Hemi", 
            "translation" : [
                -43.61907196044922, 
                107.30227661132812, 
                32.99959945678711
            ]
        }, 
        {
            "mesh" : 1, 
            "name" : "OculusTouch Right"
        }, 
        {
            "mesh" : 0, 
            "name" : "Text", 
            "rotation" : [
                -0.45637375116348267, 
                0.0, 
                -0.0, 
                0.8897882103919983
            ], 
            "scale" : [
                -25.437829971313477, 
                -25.43783187866211, 
                -25.43783187866211
            ], 
            "translation" : [
                91.14582061767578, 
                71.09515380859375, 
                -16.17091178894043
            ]
        }
    ], 
    "samplers" : [
        {}
    ], 
    "scene" : 0, 
    "scenes" : [
        {
            "name" : "Scene", 
            "nodes" : [
                4, 
                0, 
                3, 
                2, 
                1
            ]
        }
    ], 
    "textures" : [
        {
            "sampler" : 0, 
            "source" : 0
        }, 
        {
            "sampler" : 0, 
            "source" : 1
        }
    ]
}
