{
    "accessors" : [
        {
            "bufferView" : 0, 
            "componentType" : 5123, 
            "count" : 6486, 
            "max" : [
                3217
            ], 
            "min" : [
                0
            ], 
            "type" : "SCALAR"
        }, 
        {
            "bufferView" : 1, 
            "componentType" : 5126, 
            "count" : 3218, 
            "max" : [
                2.269007444381714, 
                0.049999985843896866, 
                0.05908549576997757
            ], 
            "min" : [
                0.023000020533800125, 
                -0.049999985843896866, 
                -0.7320000529289246
            ], 
            "type" : "VEC3"
        }, 
        {
            "bufferView" : 2, 
            "componentType" : 5126, 
            "count" : 3218, 
            "max" : [
                0.9717704057693481, 
                1.0, 
                0.9951170086860657
            ], 
            "min" : [
                -0.9717704057693481, 
                -1.0, 
                -0.9952086210250854
            ], 
            "type" : "VEC3"
        }, 
        {
            "bufferView" : 3, 
            "componentType" : 5126, 
            "count" : 3218, 
            "max" : [
                1.0, 
                0.963833212852478, 
                0.9983444809913635, 
                1.0
            ], 
            "min" : [
                -1.0, 
                -0.9794639348983765, 
                -0.9983444809913635, 
                1.0
            ], 
            "type" : "VEC4"
        }, 
        {
            "bufferView" : 4, 
            "componentType" : 5126, 
            "count" : 3218, 
            "max" : [
                1.0, 
                1.0
            ], 
            "min" : [
                0.0, 
                0.0
            ], 
            "type" : "VEC2"
        }, 
        {
            "bufferView" : 5, 
            "componentType" : 5123, 
            "count" : 1728, 
            "max" : [
                299
            ], 
            "min" : [
                0
            ], 
            "type" : "SCALAR"
        }, 
        {
            "bufferView" : 6, 
            "componentType" : 5126, 
            "count" : 300, 
            "max" : [
                1.0, 
                0.009869217872619629, 
                0.31904709339141846
            ], 
            "min" : [
                -0.8800570964813232, 
                -0.3297397494316101, 
                -0.04444044083356857
            ], 
            "type" : "VEC3"
        }, 
        {
            "bufferView" : 7, 
            "componentType" : 5126, 
            "count" : 300, 
            "max" : [
                0.6898708939552307, 
                0.999786376953125, 
                0.9884334802627563
            ], 
            "min" : [
                -0.6897793412208557, 
                -0.999786376953125, 
                -0.9880977869033813
            ], 
            "type" : "VEC3"
        }, 
        {
            "bufferView" : 8, 
            "componentType" : 5125, 
            "count" : 451509, 
            "max" : [
                451488
            ], 
            "min" : [
                0
            ], 
            "type" : "SCALAR"
        }, 
        {
            "bufferView" : 9, 
            "componentType" : 5126, 
            "count" : 451489, 
            "max" : [
                -4.428014755249023, 
                44.1544075012207, 
                23.72868537902832
            ], 
            "min" : [
                -106.00033569335938, 
                -47.601470947265625, 
                -69.48744201660156
            ], 
            "type" : "VEC3"
        }, 
        {
            "bufferView" : 10, 
            "componentType" : 5126, 
            "count" : 451489, 
            "max" : [
                0.9999879002571106, 
                1.0, 
                1.0
            ], 
            "min" : [
                -0.999963104724884, 
                -1.0, 
                -1.0
            ], 
            "type" : "VEC3"
        }, 
        {
            "bufferView" : 11, 
            "componentType" : 5126, 
            "count" : 451489, 
            "max" : [
                1.0, 
                0.9999998211860657, 
                1.0, 
                1.0
            ], 
            "min" : [
                -0.9997887015342712, 
                -0.9999918937683105, 
                -1.0, 
                -1.0
            ], 
            "type" : "VEC4"
        }, 
        {
            "bufferView" : 12, 
            "componentType" : 5126, 
            "count" : 451489, 
            "max" : [
                1.0, 
                1.0
            ], 
            "min" : [
                0.0, 
                0.0
            ], 
            "type" : "VEC2"
        }
    ], 
    "asset" : {
        "generator" : "Khronos Blender glTF 2.0 exporter", 
        "version" : "2.0"
    }, 
    "bufferViews" : [
        {
            "buffer" : 0, 
            "byteLength" : 12972, 
            "byteOffset" : 0, 
            "target" : 34963
        }, 
        {
            "buffer" : 0, 
            "byteLength" : 38616, 
            "byteOffset" : 12972, 
            "target" : 34962
        }, 
        {
            "buffer" : 0, 
            "byteLength" : 38616, 
            "byteOffset" : 51588, 
            "target" : 34962
        }, 
        {
            "buffer" : 0, 
            "byteLength" : 51488, 
            "byteOffset" : 90204, 
            "target" : 34962
        }, 
        {
            "buffer" : 0, 
            "byteLength" : 25744, 
            "byteOffset" : 141692, 
            "target" : 34962
        }, 
        {
            "buffer" : 0, 
            "byteLength" : 3456, 
            "byteOffset" : 167436, 
            "target" : 34963
        }, 
        {
            "buffer" : 0, 
            "byteLength" : 3600, 
            "byteOffset" : 170892, 
            "target" : 34962
        }, 
        {
            "buffer" : 0, 
            "byteLength" : 3600, 
            "byteOffset" : 174492, 
            "target" : 34962
        }, 
        {
            "buffer" : 0, 
            "byteLength" : 1806036, 
            "byteOffset" : 178092, 
            "target" : 34963
        }, 
        {
            "buffer" : 0, 
            "byteLength" : 5417868, 
            "byteOffset" : 1984128, 
            "target" : 34962
        }, 
        {
            "buffer" : 0, 
            "byteLength" : 5417868, 
            "byteOffset" : 7401996, 
            "target" : 34962
        }, 
        {
            "buffer" : 0, 
            "byteLength" : 7223824, 
            "byteOffset" : 12819864, 
            "target" : 34962
        }, 
        {
            "buffer" : 0, 
            "byteLength" : 3611912, 
            "byteOffset" : 20043688, 
            "target" : 34962
        }
    ], 
    "buffers" : [
        {
            "byteLength" : 23655600, 
            "uri" : "move_controller.bin"
        }
    ], 
    "images" : [
        {
            "uri" : "move.png"
        }, 
        {
            "uri" : "right_controller.png"
        }
    ], 
    "materials" : [
        {
            "name" : "Material", 
            "pbrMetallicRoughness" : {
                "baseColorFactor" : [
                    0.2023999721169467, 
                    0.2023999721169467, 
                    0.2023999721169467, 
                    1.0
                ], 
                "metallicFactor" : 0.0
            }
        }, 
        {
            "name" : "Material.001", 
            "pbrMetallicRoughness" : {
                "baseColorFactor" : [
                    0.8062499761581421, 
                    0.09836249819658693, 
                    0.1281937416918577, 
                    1.0
                ], 
                "metallicFactor" : 0.0
            }
        }, 
        {
            "name" : "Material.002", 
            "pbrMetallicRoughness" : {
                "baseColorFactor" : [
                    0.0, 
                    0.0, 
                    0.0, 
                    1.0
                ], 
                "metallicFactor" : 0.0
            }
        }, 
        {
            "name" : "Material.003", 
            "pbrMetallicRoughness" : {
                "baseColorFactor" : [
                    0.6400000190734865, 
                    0.6400000190734865, 
                    0.6400000190734865, 
                    1.0
                ], 
                "baseColorTexture" : {
                    "index" : 0
                }, 
                "metallicFactor" : 0.0
            }
        }, 
        {
            "name" : "Material.008", 
            "pbrMetallicRoughness" : {
                "baseColorFactor" : [
                    0.6400000190734865, 
                    0.6400000190734865, 
                    0.6400000190734865, 
                    1.0
                ], 
                "baseColorTexture" : {
                    "index" : 1
                }, 
                "metallicFactor" : 0.0
            }
        }
    ], 
    "meshes" : [
        {
            "name" : "CUText", 
            "primitives" : [
                {
                    "attributes" : {
                        "NORMAL" : 2, 
                        "POSITION" : 1, 
                        "TANGENT" : 3, 
                        "TEXCOORD_0" : 4
                    }, 
                    "indices" : 0, 
                    "material" : 3
                }
            ]
        }, 
        {
            "name" : "BezierCurve.001", 
            "primitives" : [
                {
                    "attributes" : {
                        "NORMAL" : 7, 
                        "POSITION" : 6
                    }, 
                    "indices" : 5, 
                    "material" : 2
                }
            ]
        }, 
        {
            "name" : "OculusTouch Right", 
            "primitives" : [
                {
                    "attributes" : {
                        "NORMAL" : 10, 
                        "POSITION" : 9, 
                        "TANGENT" : 11, 
                        "TEXCOORD_0" : 12
                    }, 
                    "indices" : 8, 
                    "material" : 4
                }
            ]
        }
    ], 
    "nodes" : [
        {
            "mesh" : 1, 
            "name" : "BezierCurve", 
            "rotation" : [
                -0.26832661032676697, 
                0.6151130199432373, 
                0.7323426604270935, 
                0.11537358909845352
            ], 
            "scale" : [
                41.57351303100586, 
                41.57351303100586, 
                41.573516845703125
            ], 
            "translation" : [
                -6.195972442626953, 
                18.076717376708984, 
                43.68627166748047
            ]
        }, 
        {
            "name" : "Camera", 
            "rotation" : [
                0.483536034822464, 
                0.33687159419059753, 
                -0.20870360732078552, 
                0.7804827094078064
            ], 
            "translation" : [
                7.481132507324219, 
                5.343666076660156, 
                6.507640838623047
            ]
        }, 
        {
            "name" : "Hemi", 
            "translation" : [
                -43.61906051635742, 
                107.30227661132812, 
                32.99959945678711
            ]
        }, 
        {
            "mesh" : 2, 
            "name" : "OculusTouch Right"
        }, 
        {
            "mesh" : 0, 
            "name" : "Text", 
            "rotation" : [
                0.045149046927690506, 
                0.8230149745941162, 
                -0.5623538494110107, 
                0.06607630103826523
            ], 
            "scale" : [
                31.621809005737305, 
                31.62181282043457, 
                31.62181282043457
            ], 
            "translation" : [
                62.615535736083984, 
                44.82195281982422, 
                44.68880081176758
            ]
        }
    ], 
    "samplers" : [
        {}
    ], 
    "scene" : 0, 
    "scenes" : [
        {
            "name" : "Scene", 
            "nodes" : [
                4, 
                3, 
                0, 
                2, 
                1
            ]
        }
    ], 
    "textures" : [
        {
            "sampler" : 0, 
            "source" : 0
        }, 
        {
            "sampler" : 0, 
            "source" : 1
        }
    ]
}
