{
    "accessors" : [
        {
            "bufferView" : 0, 
            "componentType" : 5123, 
            "count" : 14862, 
            "max" : [
                4341
            ], 
            "min" : [
                0
            ], 
            "type" : "SCALAR"
        }, 
        {
            "bufferView" : 1, 
            "componentType" : 5126, 
            "count" : 4342, 
            "max" : [
                3.6110000610351562, 
                0.05000000074505806, 
                0.2800000011920929
            ], 
            "min" : [
                -0.032999999821186066, 
                -0.05000000074505806, 
                -0.7320000529289246
            ], 
            "type" : "VEC3"
        }, 
        {
            "bufferView" : 2, 
            "componentType" : 5126, 
            "count" : 4342, 
            "max" : [
                0.9869990944862366, 
                1.0, 
                0.9951170086860657
            ], 
            "min" : [
                -0.9885250329971313, 
                -1.0, 
                -0.9952086210250854
            ], 
            "type" : "VEC3"
        }, 
        {
            "bufferView" : 3, 
            "componentType" : 5123, 
            "count" : 1728, 
            "max" : [
                299
            ], 
            "min" : [
                0
            ], 
            "type" : "SCALAR"
        }, 
        {
            "bufferView" : 4, 
            "componentType" : 5126, 
            "count" : 300, 
            "max" : [
                1.0, 
                0.005000000819563866, 
                0.004999999422580004
            ], 
            "min" : [
                -1.003535509109497, 
                -0.005000000819563866, 
                -0.2272222489118576
            ], 
            "type" : "VEC3"
        }, 
        {
            "bufferView" : 5, 
            "componentType" : 5126, 
            "count" : 300, 
            "max" : [
                0.6761986017227173, 
                1.0, 
                0.999969482421875
            ], 
            "min" : [
                -0.6761986017227173, 
                -0.999969482421875, 
                -0.999969482421875
            ], 
            "type" : "VEC3"
        }, 
        {
            "bufferView" : 6, 
            "componentType" : 5125, 
            "count" : 451509, 
            "max" : [
                451494
            ], 
            "min" : [
                0
            ], 
            "type" : "SCALAR"
        }, 
        {
            "bufferView" : 7, 
            "componentType" : 5126, 
            "count" : 451495, 
            "max" : [
                106.00033569335938, 
                44.1544075012207, 
                23.72868537902832
            ], 
            "min" : [
                4.428014755249023, 
                -47.601470947265625, 
                -69.48744201660156
            ], 
            "type" : "VEC3"
        }, 
        {
            "bufferView" : 8, 
            "componentType" : 5126, 
            "count" : 451495, 
            "max" : [
                0.999963104724884, 
                1.0, 
                1.0
            ], 
            "min" : [
                -0.9999879002571106, 
                -1.0, 
                -1.0
            ], 
            "type" : "VEC3"
        }, 
        {
            "bufferView" : 9, 
            "componentType" : 5126, 
            "count" : 451495, 
            "max" : [
                1.0, 
                0.9999999403953552, 
                1.0, 
                1.0
            ], 
            "min" : [
                -0.999485969543457, 
                -0.9999918937683105, 
                -1.0, 
                -1.0
            ], 
            "type" : "VEC4"
        }, 
        {
            "bufferView" : 10, 
            "componentType" : 5126, 
            "count" : 451495, 
            "max" : [
                1.0, 
                1.0
            ], 
            "min" : [
                0.0, 
                0.0
            ], 
            "type" : "VEC2"
        }
    ], 
    "asset" : {
        "generator" : "Khronos Blender glTF 2.0 exporter", 
        "version" : "2.0"
    }, 
    "bufferViews" : [
        {
            "buffer" : 0, 
            "byteLength" : 29724, 
            "byteOffset" : 0, 
            "target" : 34963
        }, 
        {
            "buffer" : 0, 
            "byteLength" : 52104, 
            "byteOffset" : 29724, 
            "target" : 34962
        }, 
        {
            "buffer" : 0, 
            "byteLength" : 52104, 
            "byteOffset" : 81828, 
            "target" : 34962
        }, 
        {
            "buffer" : 0, 
            "byteLength" : 3456, 
            "byteOffset" : 133932, 
            "target" : 34963
        }, 
        {
            "buffer" : 0, 
            "byteLength" : 3600, 
            "byteOffset" : 137388, 
            "target" : 34962
        }, 
        {
            "buffer" : 0, 
            "byteLength" : 3600, 
            "byteOffset" : 140988, 
            "target" : 34962
        }, 
        {
            "buffer" : 0, 
            "byteLength" : 1806036, 
            "byteOffset" : 144588, 
            "target" : 34963
        }, 
        {
            "buffer" : 0, 
            "byteLength" : 5417940, 
            "byteOffset" : 1950624, 
            "target" : 34962
        }, 
        {
            "buffer" : 0, 
            "byteLength" : 5417940, 
            "byteOffset" : 7368564, 
            "target" : 34962
        }, 
        {
            "buffer" : 0, 
            "byteLength" : 7223920, 
            "byteOffset" : 12786504, 
            "target" : 34962
        }, 
        {
            "buffer" : 0, 
            "byteLength" : 3611960, 
            "byteOffset" : 20010424, 
            "target" : 34962
        }
    ], 
    "buffers" : [
        {
            "byteLength" : 23622384, 
            "uri" : "teleport_controller.bin"
        }
    ], 
    "images" : [
        {
            "uri" : "controller_texture.png"
        }
    ], 
    "materials" : [
        {
            "name" : "Material.002", 
            "pbrMetallicRoughness" : {
                "baseColorFactor" : [
                    0.0, 
                    0.0, 
                    0.0, 
                    1.0
                ], 
                "metallicFactor" : 0.0
            }
        }, 
        {
            "name" : "Material.004", 
            "pbrMetallicRoughness" : {
                "baseColorFactor" : [
                    0.6400000190734865, 
                    0.6400000190734865, 
                    0.6400000190734865, 
                    1.0
                ], 
                "metallicFactor" : 0.0
            }
        }, 
        {
            "name" : "Material.005", 
            "pbrMetallicRoughness" : {
                "baseColorFactor" : [
                    0.20235455337695107, 
                    0.20235455337695107, 
                    0.20235455337695107, 
                    1.0
                ], 
                "metallicFactor" : 0.0
            }
        }, 
        {
            "name" : "Material.006", 
            "pbrMetallicRoughness" : {
                "baseColorFactor" : [
                    0.6400000190734865, 
                    0.6400000190734865, 
                    0.6400000190734865, 
                    1.0
                ], 
                "baseColorTexture" : {
                    "index" : 0
                }, 
                "metallicFactor" : 0.0
            }
        }
    ], 
    "meshes" : [
        {
            "name" : "CUTeleport", 
            "primitives" : [
                {
                    "attributes" : {
                        "NORMAL" : 2, 
                        "POSITION" : 1
                    }, 
                    "indices" : 0, 
                    "material" : 1
                }
            ]
        }, 
        {
            "name" : "BezierCurve.001", 
            "primitives" : [
                {
                    "attributes" : {
                        "NORMAL" : 5, 
                        "POSITION" : 4
                    }, 
                    "indices" : 3, 
                    "material" : 0
                }
            ]
        }, 
        {
            "name" : "OculusTouch Left", 
            "primitives" : [
                {
                    "attributes" : {
                        "NORMAL" : 8, 
                        "POSITION" : 7, 
                        "TANGENT" : 9, 
                        "TEXCOORD_0" : 10
                    }, 
                    "indices" : 6, 
                    "material" : 3
                }
            ]
        }
    ], 
    "nodes" : [
        {
            "mesh" : 1, 
            "name" : "BezierCurve", 
            "rotation" : [
                -0.5507573485374451, 
                0.24384596943855286, 
                -0.12334834039211273, 
                0.7886638641357422
            ], 
            "scale" : [
                41.57351303100586, 
                41.57351303100586, 
                41.57351303100586
            ], 
            "translation" : [
                0.7539055347442627, 
                24.54573631286621, 
                32.34391403198242
            ]
        }, 
        {
            "name" : "Camera", 
            "rotation" : [
                0.483536034822464, 
                0.33687159419059753, 
                -0.20870360732078552, 
                0.7804827094078064
            ], 
            "translation" : [
                7.481131553649902, 
                5.34366512298584, 
                6.5076398849487305
            ]
        }, 
        {
            "name" : "Hemi", 
            "translation" : [
                7.092106819152832, 
                53.15803909301758, 
                29.672611236572266
            ]
        }, 
        {
            "mesh" : 2, 
            "name" : "OculusTouch Left"
        }, 
        {
            "mesh" : 0, 
            "name" : "Teleport", 
            "rotation" : [
                0.057642363011837006, 
                0.8516016602516174, 
                -0.5205023884773254, 
                0.023005126044154167
            ], 
            "scale" : [
                14.255146980285645, 
                14.255146026611328, 
                14.255146026611328
            ], 
            "translation" : [
                -8.496952056884766, 
                54.09235763549805, 
                44.62324523925781
            ]
        }
    ], 
    "samplers" : [
        {}
    ], 
    "scene" : 0, 
    "scenes" : [
        {
            "name" : "Scene", 
            "nodes" : [
                4, 
                0, 
                2, 
                3, 
                1
            ]
        }
    ], 
    "textures" : [
        {
            "sampler" : 0, 
            "source" : 0
        }
    ]
}
