{
    "accessors" : [
        {
            "bufferView" : 0, 
            "componentType" : 5123, 
            "count" : 1872, 
            "max" : [
                561
            ], 
            "min" : [
                0
            ], 
            "type" : "SCALAR"
        }, 
        {
            "bufferView" : 1, 
            "componentType" : 5126, 
            "count" : 562, 
            "max" : [
                1.5385773181915283, 
                2.3168132305145264, 
                3.546367883682251
            ], 
            "min" : [
                -1.574817419052124, 
                0.0, 
                -1.4430925846099854
            ], 
            "type" : "VEC3"
        }, 
        {
            "bufferView" : 2, 
            "componentType" : 5126, 
            "count" : 562, 
            "max" : [
                1.0, 
                1.0, 
                1.0
            ], 
            "min" : [
                -1.0, 
                0.0, 
                -1.0
            ], 
            "type" : "VEC3"
        }, 
        {
            "bufferView" : 3, 
            "componentType" : 5126, 
            "count" : 562, 
            "max" : [
                1.0, 
                1.0
            ], 
            "min" : [
                0.0, 
                0.0
            ], 
            "type" : "VEC2"
        }
    ], 
    "asset" : {
        "generator" : "Khronos Blender glTF 2.0 exporter", 
        "version" : "2.0"
    }, 
    "bufferViews" : [
        {
            "buffer" : 0, 
            "byteLength" : 3744, 
            "byteOffset" : 0, 
            "target" : 34963
        }, 
        {
            "buffer" : 0, 
            "byteLength" : 6744, 
            "byteOffset" : 3744, 
            "target" : 34962
        }, 
        {
            "buffer" : 0, 
            "byteLength" : 6744, 
            "byteOffset" : 10488, 
            "target" : 34962
        }, 
        {
            "buffer" : 0, 
            "byteLength" : 4496, 
            "byteOffset" : 17232, 
            "target" : 34962
        }
    ], 
    "buffers" : [
        {
            "byteLength" : 21728, 
            "uri" : "tutorial_room.bin"
        }
    ], 
    "images" : [
        {
            "uri" : "walls_tutorial.png"
        }
    ], 
    "materials" : [
        {
            "name" : "Material.001", 
            "pbrMetallicRoughness" : {
                "baseColorFactor" : [
                    0.3871334610452273, 
                    0.6217033478871485, 
                    0.640000066757203, 
                    1.0
                ], 
                "metallicFactor" : 0.0
            }
        }, 
        {
            "name" : "Material.002", 
            "pbrMetallicRoughness" : {
                "baseColorFactor" : [
                    0.6400000190734865, 
                    0.6400000190734865, 
                    0.6400000190734865, 
                    1.0
                ], 
                "baseColorTexture" : {
                    "index" : 0
                }, 
                "metallicFactor" : 0.0
            }
        }
    ], 
    "meshes" : [
        {
            "name" : "Plane", 
            "primitives" : [
                {
                    "attributes" : {
                        "NORMAL" : 2, 
                        "POSITION" : 1, 
                        "TEXCOORD_0" : 3
                    }, 
                    "indices" : 0, 
                    "material" : 1
                }
            ]
        }
    ], 
    "nodes" : [
        {
            "name" : "Camera", 
            "rotation" : [
                0.483536034822464, 
                0.33687159419059753, 
                -0.20870360732078552, 
                0.7804827094078064
            ], 
            "translation" : [
                7.481131553649902, 
                5.34366512298584, 
                6.5076398849487305
            ]
        }, 
        {
            "name" : "Hemi", 
            "translation" : [
                13.10090160369873, 
                4.336209297180176, 
                -4.529881954193115
            ]
        }, 
        {
            "name" : "Lamp", 
            "rotation" : [
                0.16907575726509094, 
                0.7558802962303162, 
                -0.27217137813568115, 
                0.570947527885437
            ], 
            "scale" : [
                1.0, 
                1.0, 
                0.9999999403953552
            ], 
            "translation" : [
                0.09744836390018463, 
                4.306712627410889, 
                3.2635250091552734
            ]
        }, 
        {
            "mesh" : 0, 
            "name" : "Plane", 
            "scale" : [
                3.542050361633301, 
                2.288076639175415, 
                2.984370231628418
            ], 
            "translation" : [
                0.0, 
                0.0, 
                -3.5248053073883057
            ]
        }, 
        {
            "name" : "Point", 
            "translation" : [
                -2.9395151138305664, 
                4.572021961212158, 
                -4.585511684417725
            ]
        }, 
        {
            "name" : "Point.001", 
            "translation" : [
                2.6379611492156982, 
                4.433094024658203, 
                -4.48436164855957
            ]
        }
    ], 
    "samplers" : [
        {}
    ], 
    "scene" : 0, 
    "scenes" : [
        {
            "name" : "Scene", 
            "nodes" : [
                1, 
                5, 
                4, 
                3, 
                2, 
                0
            ]
        }
    ], 
    "textures" : [
        {
            "sampler" : 0, 
            "source" : 0
        }
    ]
}
